<mxfile host="app.diagrams.net" agent="Mozilla/5.0 (Windows NT 10.0; Win64; x64) AppleWebKit/537.36 (KHTML, like Gecko) Chrome/133.0.0.0 Safari/537.36" version="26.0.16">
  <diagram name="PÃ¡gina-1" id="5Hepe7qikAxfW_THESNY">
    <mxGraphModel dx="1395" dy="1812" grid="1" gridSize="10" guides="1" tooltips="1" connect="1" arrows="1" fold="1" page="1" pageScale="1" pageWidth="827" pageHeight="1169" math="0" shadow="0">
      <root>
        <mxCell id="0" />
        <mxCell id="1" parent="0" />
        <mxCell id="MhBcHHWA9VbJRby8NYYb-5" value="&lt;p style=&quot;margin:0px;margin-top:4px;text-align:center;&quot;&gt;&lt;i&gt;&amp;lt;&amp;lt;Interface&amp;gt;&amp;gt;&lt;/i&gt;&lt;br&gt;&lt;b&gt;Entrega&lt;/b&gt;&lt;/p&gt;&lt;hr size=&quot;1&quot; style=&quot;border-style:solid;&quot;&gt;&lt;p style=&quot;margin:0px;margin-left:4px;&quot;&gt;+ calcularValorEntrega(produtos: list&amp;lt;Produto&amp;gt;): double&lt;/p&gt;" style="verticalAlign=top;align=left;overflow=fill;html=1;whiteSpace=wrap;" vertex="1" parent="1">
          <mxGeometry x="180" y="320" width="270" height="80" as="geometry" />
        </mxCell>
        <mxCell id="MhBcHHWA9VbJRby8NYYb-6" value="EncomendaPac" style="swimlane;fontStyle=1;align=center;verticalAlign=top;childLayout=stackLayout;horizontal=1;startSize=26;horizontalStack=0;resizeParent=1;resizeParentMax=0;resizeLast=0;collapsible=1;marginBottom=0;whiteSpace=wrap;html=1;" vertex="1" parent="1">
          <mxGeometry x="70" y="490" width="300" height="70" as="geometry" />
        </mxCell>
        <mxCell id="MhBcHHWA9VbJRby8NYYb-8" value="" style="line;strokeWidth=1;fillColor=none;align=left;verticalAlign=middle;spacingTop=-1;spacingLeft=3;spacingRight=3;rotatable=0;labelPosition=right;points=[];portConstraint=eastwest;strokeColor=inherit;" vertex="1" parent="MhBcHHWA9VbJRby8NYYb-6">
          <mxGeometry y="26" width="300" height="8" as="geometry" />
        </mxCell>
        <mxCell id="MhBcHHWA9VbJRby8NYYb-9" value="+ calcularValorEntrega(produtos: list&amp;lt;Produto&amp;gt;): double" style="text;strokeColor=none;fillColor=none;align=left;verticalAlign=top;spacingLeft=4;spacingRight=4;overflow=hidden;rotatable=0;points=[[0,0.5],[1,0.5]];portConstraint=eastwest;whiteSpace=wrap;html=1;" vertex="1" parent="MhBcHHWA9VbJRby8NYYb-6">
          <mxGeometry y="34" width="300" height="36" as="geometry" />
        </mxCell>
        <mxCell id="MhBcHHWA9VbJRby8NYYb-10" value="EncomendaSedex" style="swimlane;fontStyle=1;align=center;verticalAlign=top;childLayout=stackLayout;horizontal=1;startSize=26;horizontalStack=0;resizeParent=1;resizeParentMax=0;resizeLast=0;collapsible=1;marginBottom=0;whiteSpace=wrap;html=1;" vertex="1" parent="1">
          <mxGeometry x="440" y="490" width="290" height="70" as="geometry" />
        </mxCell>
        <mxCell id="MhBcHHWA9VbJRby8NYYb-12" value="" style="line;strokeWidth=1;fillColor=none;align=left;verticalAlign=middle;spacingTop=-1;spacingLeft=3;spacingRight=3;rotatable=0;labelPosition=right;points=[];portConstraint=eastwest;strokeColor=inherit;" vertex="1" parent="MhBcHHWA9VbJRby8NYYb-10">
          <mxGeometry y="26" width="290" height="8" as="geometry" />
        </mxCell>
        <mxCell id="MhBcHHWA9VbJRby8NYYb-13" value="+ calcularValorEntrega(produtos: list&amp;lt;Produto&amp;gt;): double" style="text;strokeColor=none;fillColor=none;align=left;verticalAlign=top;spacingLeft=4;spacingRight=4;overflow=hidden;rotatable=0;points=[[0,0.5],[1,0.5]];portConstraint=eastwest;whiteSpace=wrap;html=1;" vertex="1" parent="MhBcHHWA9VbJRby8NYYb-10">
          <mxGeometry y="34" width="290" height="36" as="geometry" />
        </mxCell>
        <mxCell id="MhBcHHWA9VbJRby8NYYb-14" value="Retirada" style="swimlane;fontStyle=1;align=center;verticalAlign=top;childLayout=stackLayout;horizontal=1;startSize=26;horizontalStack=0;resizeParent=1;resizeParentMax=0;resizeLast=0;collapsible=1;marginBottom=0;whiteSpace=wrap;html=1;" vertex="1" parent="1">
          <mxGeometry x="270" y="610" width="280" height="80" as="geometry" />
        </mxCell>
        <mxCell id="MhBcHHWA9VbJRby8NYYb-16" value="" style="line;strokeWidth=1;fillColor=none;align=left;verticalAlign=middle;spacingTop=-1;spacingLeft=3;spacingRight=3;rotatable=0;labelPosition=right;points=[];portConstraint=eastwest;strokeColor=inherit;" vertex="1" parent="MhBcHHWA9VbJRby8NYYb-14">
          <mxGeometry y="26" width="280" height="8" as="geometry" />
        </mxCell>
        <mxCell id="MhBcHHWA9VbJRby8NYYb-17" value="+ calcularValorEntrega(produtos: list&amp;lt;Produto&amp;gt;): double" style="text;strokeColor=none;fillColor=none;align=left;verticalAlign=top;spacingLeft=4;spacingRight=4;overflow=hidden;rotatable=0;points=[[0,0.5],[1,0.5]];portConstraint=eastwest;whiteSpace=wrap;html=1;" vertex="1" parent="MhBcHHWA9VbJRby8NYYb-14">
          <mxGeometry y="34" width="280" height="46" as="geometry" />
        </mxCell>
        <mxCell id="MhBcHHWA9VbJRby8NYYb-19" value="Produto" style="swimlane;fontStyle=1;align=center;verticalAlign=top;childLayout=stackLayout;horizontal=1;startSize=26;horizontalStack=0;resizeParent=1;resizeParentMax=0;resizeLast=0;collapsible=1;marginBottom=0;whiteSpace=wrap;html=1;" vertex="1" parent="1">
          <mxGeometry y="-40" width="230" height="140" as="geometry" />
        </mxCell>
        <mxCell id="MhBcHHWA9VbJRby8NYYb-20" value="- nome: String&lt;div&gt;- valor: double&lt;/div&gt;&lt;div&gt;- peso: int&lt;/div&gt;" style="text;strokeColor=none;fillColor=none;align=left;verticalAlign=top;spacingLeft=4;spacingRight=4;overflow=hidden;rotatable=0;points=[[0,0.5],[1,0.5]];portConstraint=eastwest;whiteSpace=wrap;html=1;" vertex="1" parent="MhBcHHWA9VbJRby8NYYb-19">
          <mxGeometry y="26" width="230" height="64" as="geometry" />
        </mxCell>
        <mxCell id="MhBcHHWA9VbJRby8NYYb-21" value="" style="line;strokeWidth=1;fillColor=none;align=left;verticalAlign=middle;spacingTop=-1;spacingLeft=3;spacingRight=3;rotatable=0;labelPosition=right;points=[];portConstraint=eastwest;strokeColor=inherit;" vertex="1" parent="MhBcHHWA9VbJRby8NYYb-19">
          <mxGeometry y="90" width="230" height="8" as="geometry" />
        </mxCell>
        <mxCell id="MhBcHHWA9VbJRby8NYYb-41" value="+ Produto(nome: String, valor: double, peso: int)" style="text;strokeColor=none;fillColor=none;align=left;verticalAlign=top;spacingLeft=4;spacingRight=4;overflow=hidden;rotatable=0;points=[[0,0.5],[1,0.5]];portConstraint=eastwest;whiteSpace=wrap;html=1;" vertex="1" parent="MhBcHHWA9VbJRby8NYYb-19">
          <mxGeometry y="98" width="230" height="42" as="geometry" />
        </mxCell>
        <mxCell id="MhBcHHWA9VbJRby8NYYb-24" value="ProcessamentoPedido" style="swimlane;fontStyle=1;align=center;verticalAlign=top;childLayout=stackLayout;horizontal=1;startSize=26;horizontalStack=0;resizeParent=1;resizeParentMax=0;resizeLast=0;collapsible=1;marginBottom=0;whiteSpace=wrap;html=1;" vertex="1" parent="1">
          <mxGeometry x="440" y="150" width="340" height="110" as="geometry" />
        </mxCell>
        <mxCell id="MhBcHHWA9VbJRby8NYYb-25" value="- pedido: Pedido" style="text;strokeColor=none;fillColor=none;align=left;verticalAlign=top;spacingLeft=4;spacingRight=4;overflow=hidden;rotatable=0;points=[[0,0.5],[1,0.5]];portConstraint=eastwest;whiteSpace=wrap;html=1;" vertex="1" parent="MhBcHHWA9VbJRby8NYYb-24">
          <mxGeometry y="26" width="340" height="26" as="geometry" />
        </mxCell>
        <mxCell id="MhBcHHWA9VbJRby8NYYb-26" value="" style="line;strokeWidth=1;fillColor=none;align=left;verticalAlign=middle;spacingTop=-1;spacingLeft=3;spacingRight=3;rotatable=0;labelPosition=right;points=[];portConstraint=eastwest;strokeColor=inherit;" vertex="1" parent="MhBcHHWA9VbJRby8NYYb-24">
          <mxGeometry y="52" width="340" height="8" as="geometry" />
        </mxCell>
        <mxCell id="MhBcHHWA9VbJRby8NYYb-27" value="+ processarPedido(pedido: Pedido): Map&amp;lt;String, Double&amp;gt;" style="text;strokeColor=none;fillColor=none;align=left;verticalAlign=top;spacingLeft=4;spacingRight=4;overflow=hidden;rotatable=0;points=[[0,0.5],[1,0.5]];portConstraint=eastwest;whiteSpace=wrap;html=1;" vertex="1" parent="MhBcHHWA9VbJRby8NYYb-24">
          <mxGeometry y="60" width="340" height="50" as="geometry" />
        </mxCell>
        <mxCell id="MhBcHHWA9VbJRby8NYYb-28" value="Pedido" style="swimlane;fontStyle=1;align=center;verticalAlign=top;childLayout=stackLayout;horizontal=1;startSize=26;horizontalStack=0;resizeParent=1;resizeParentMax=0;resizeLast=0;collapsible=1;marginBottom=0;whiteSpace=wrap;html=1;" vertex="1" parent="1">
          <mxGeometry x="180" y="171" width="210" height="110" as="geometry" />
        </mxCell>
        <mxCell id="MhBcHHWA9VbJRby8NYYb-29" value="- produtos: List&amp;lt;Produto&amp;gt;" style="text;strokeColor=none;fillColor=none;align=left;verticalAlign=top;spacingLeft=4;spacingRight=4;overflow=hidden;rotatable=0;points=[[0,0.5],[1,0.5]];portConstraint=eastwest;whiteSpace=wrap;html=1;" vertex="1" parent="MhBcHHWA9VbJRby8NYYb-28">
          <mxGeometry y="26" width="210" height="34" as="geometry" />
        </mxCell>
        <mxCell id="MhBcHHWA9VbJRby8NYYb-30" value="" style="line;strokeWidth=1;fillColor=none;align=left;verticalAlign=middle;spacingTop=-1;spacingLeft=3;spacingRight=3;rotatable=0;labelPosition=right;points=[];portConstraint=eastwest;strokeColor=inherit;" vertex="1" parent="MhBcHHWA9VbJRby8NYYb-28">
          <mxGeometry y="60" width="210" height="8" as="geometry" />
        </mxCell>
        <mxCell id="MhBcHHWA9VbJRby8NYYb-42" value="+ getProdutos(): List&amp;lt;Produto&amp;gt;&lt;div&gt;+ addProduto(Produto produto): void&lt;/div&gt;" style="text;strokeColor=none;fillColor=none;align=left;verticalAlign=top;spacingLeft=4;spacingRight=4;overflow=hidden;rotatable=0;points=[[0,0.5],[1,0.5]];portConstraint=eastwest;whiteSpace=wrap;html=1;" vertex="1" parent="MhBcHHWA9VbJRby8NYYb-28">
          <mxGeometry y="68" width="210" height="42" as="geometry" />
        </mxCell>
        <mxCell id="MhBcHHWA9VbJRby8NYYb-32" value="&lt;div&gt;&lt;br&gt;&lt;/div&gt;&lt;div&gt;&lt;br&gt;&lt;/div&gt;" style="endArrow=open;html=1;endSize=12;startArrow=diamondThin;startSize=14;startFill=0;edgeStyle=orthogonalEdgeStyle;align=left;verticalAlign=bottom;rounded=0;entryX=0.474;entryY=0.96;entryDx=0;entryDy=0;entryPerimeter=0;" edge="1" parent="1" source="MhBcHHWA9VbJRby8NYYb-5" target="MhBcHHWA9VbJRby8NYYb-27">
          <mxGeometry x="-1" y="3" relative="1" as="geometry">
            <mxPoint x="674.9000000000001" y="306" as="sourcePoint" />
            <mxPoint x="560" y="394" as="targetPoint" />
            <Array as="points">
              <mxPoint x="601" y="340" />
            </Array>
          </mxGeometry>
        </mxCell>
        <mxCell id="MhBcHHWA9VbJRby8NYYb-36" value="" style="endArrow=block;endSize=16;endFill=0;html=1;rounded=0;exitX=0.75;exitY=0;exitDx=0;exitDy=0;entryX=0.424;entryY=1.002;entryDx=0;entryDy=0;entryPerimeter=0;" edge="1" parent="1" source="MhBcHHWA9VbJRby8NYYb-6" target="MhBcHHWA9VbJRby8NYYb-5">
          <mxGeometry x="0.004" width="160" relative="1" as="geometry">
            <mxPoint x="220" y="490" as="sourcePoint" />
            <mxPoint x="-1880" y="530" as="targetPoint" />
            <mxPoint as="offset" />
          </mxGeometry>
        </mxCell>
        <mxCell id="MhBcHHWA9VbJRby8NYYb-37" value="" style="endArrow=block;endSize=16;endFill=0;html=1;rounded=0;exitX=0.036;exitY=0.011;exitDx=0;exitDy=0;entryX=0.926;entryY=1;entryDx=0;entryDy=0;entryPerimeter=0;exitPerimeter=0;" edge="1" parent="1" source="MhBcHHWA9VbJRby8NYYb-10" target="MhBcHHWA9VbJRby8NYYb-5">
          <mxGeometry x="0.004" width="160" relative="1" as="geometry">
            <mxPoint x="451" y="495" as="sourcePoint" />
            <mxPoint x="440" y="440" as="targetPoint" />
            <mxPoint as="offset" />
            <Array as="points">
              <mxPoint x="450" y="470" />
              <mxPoint x="430" y="470" />
            </Array>
          </mxGeometry>
        </mxCell>
        <mxCell id="MhBcHHWA9VbJRby8NYYb-38" value="" style="endArrow=block;endSize=16;endFill=0;html=1;rounded=0;exitX=0.75;exitY=0;exitDx=0;exitDy=0;entryX=0.778;entryY=1.007;entryDx=0;entryDy=0;entryPerimeter=0;" edge="1" parent="1" target="MhBcHHWA9VbJRby8NYYb-5">
          <mxGeometry x="0.004" width="160" relative="1" as="geometry">
            <mxPoint x="391" y="610" as="sourcePoint" />
            <mxPoint x="390" y="540" as="targetPoint" />
            <mxPoint as="offset" />
          </mxGeometry>
        </mxCell>
        <mxCell id="MhBcHHWA9VbJRby8NYYb-39" value="" style="endArrow=open;endFill=1;endSize=12;html=1;rounded=0;exitX=0.75;exitY=1;exitDx=0;exitDy=0;entryX=0.093;entryY=0.02;entryDx=0;entryDy=0;entryPerimeter=0;" edge="1" parent="1" source="MhBcHHWA9VbJRby8NYYb-19" target="MhBcHHWA9VbJRby8NYYb-28">
          <mxGeometry width="160" relative="1" as="geometry">
            <mxPoint x="190" y="150" as="sourcePoint" />
            <mxPoint x="350" y="150" as="targetPoint" />
            <Array as="points">
              <mxPoint x="173" y="150" />
              <mxPoint x="200" y="150" />
            </Array>
          </mxGeometry>
        </mxCell>
        <mxCell id="MhBcHHWA9VbJRby8NYYb-40" value="" style="endArrow=open;endFill=1;endSize=12;html=1;rounded=0;exitX=0.5;exitY=1;exitDx=0;exitDy=0;entryX=0.39;entryY=-0.005;entryDx=0;entryDy=0;entryPerimeter=0;" edge="1" parent="1" source="MhBcHHWA9VbJRby8NYYb-28" target="MhBcHHWA9VbJRby8NYYb-5">
          <mxGeometry width="160" relative="1" as="geometry">
            <mxPoint x="240" y="260" as="sourcePoint" />
            <mxPoint x="260" y="280" as="targetPoint" />
          </mxGeometry>
        </mxCell>
      </root>
    </mxGraphModel>
  </diagram>
</mxfile>
